{
	"asset":{
		"generator":"Khronos glTF Blender I/O v5.1.19",
		"version":"2.0"
	},
	"scene":0,
	"scenes":[
		{
			"name":"Scene",
			"nodes":[
				0
			]
		}
	],
	"nodes":[
		{
			"mesh":0,
			"name":"\u5186\u9310"
		}
	],
	"meshes":[
		{
			"name":"\u5186\u9310.002",
			"primitives":[
				{
					"attributes":{
						"POSITION":0,
						"NORMAL":1,
						"TEXCOORD_0":2
					},
					"indices":3
				}
			]
		}
	],
	"accessors":[
		{
			"bufferView":0,
			"componentType":5126,
			"count":13,
			"max":[
				0.4999999701976776,
				0.5,
				0.5
			],
			"min":[
				-0.4999999701976776,
				-0.5,
				-0.5
			],
			"type":"VEC3"
		},
		{
			"bufferView":1,
			"componentType":5126,
			"count":13,
			"type":"VEC3"
		},
		{
			"bufferView":2,
			"componentType":5126,
			"count":13,
			"type":"VEC2"
		},
		{
			"bufferView":3,
			"componentType":5123,
			"count":30,
			"type":"SCALAR"
		}
	],
	"bufferViews":[
		{
			"buffer":0,
			"byteLength":156,
			"byteOffset":0,
			"target":34962
		},
		{
			"buffer":0,
			"byteLength":156,
			"byteOffset":156,
			"target":34962
		},
		{
			"buffer":0,
			"byteLength":104,
			"byteOffset":312,
			"target":34962
		},
		{
			"buffer":0,
			"byteLength":60,
			"byteOffset":416,
			"target":34963
		}
	],
	"buffers":[
		{
			"byteLength":476,
			"uri":"Dorn.bin"
		}
	]
}
